<?xml version="1.0" standalone="no"?>
<!DOCTYPE svg PUBLIC "-//W3C//DTD SVG 20010904//EN"
 "http://www.w3.org/TR/2001/REC-SVG-20010904/DTD/svg10.dtd">
<svg version="1.0" xmlns="http://www.w3.org/2000/svg"
 width="311.000000pt" height="310.000000pt" viewBox="0 0 311.000000 310.000000"
 preserveAspectRatio="xMidYMid meet">

<g transform="translate(0.000000,310.000000) scale(0.100000,-0.100000)"
fill="#000000" stroke="none">
<path d="M1509 3090 c-336 -30 -643 -170 -887 -405 -127 -122 -213 -235 -285
-374 -204 -394 -227 -824 -67 -1235 73 -187 181 -348 335 -501 203 -202 450
-333 745 -396 149 -32 430 -33 573 -1 303 67 541 196 752 407 213 212 341 451
406 755 32 149 32 419 1 566 -126 589 -558 1029 -1132 1155 -81 17 -288 41
-335 38 -11 -1 -59 -5 -106 -9z m315 -65 c597 -79 1085 -538 1202 -1128 22
-114 29 -334 15 -451 -89 -706 -690 -1236 -1401 -1236 -226 0 -412 41 -606
134 -290 139 -513 354 -656 632 -315 612 -142 1363 412 1781 125 94 337 196
483 233 199 50 361 60 551 35z"/>
<path d="M1679 2499 c-7 -4 -17 -5 -21 -3 -4 3 -14 2 -20 -3 -7 -4 -15 -8 -18
-8 -3 -1 -23 -10 -45 -22 -22 -11 -46 -18 -53 -15 -24 8 -62 -20 -94 -70 -17
-26 -35 -45 -39 -42 -5 3 -9 -2 -9 -10 0 -9 -4 -16 -9 -16 -10 0 -12 -11 -36
-150 -13 -73 -14 -99 -5 -113 7 -12 9 -34 5 -57 -4 -23 -2 -41 4 -45 6 -3 11
1 11 10 0 10 11 30 25 47 18 21 25 41 25 72 0 72 28 145 74 193 l42 45 37 -15
c20 -9 37 -23 37 -31 0 -9 5 -16 11 -16 7 0 10 -12 7 -30 -4 -24 -1 -30 13
-30 35 0 49 12 49 41 0 33 13 38 30 12 9 -15 10 -13 5 10 -4 19 -2 26 7 25 14
-3 58 -49 58 -60 0 -5 5 -8 11 -8 6 0 9 7 5 15 -8 21 16 19 41 -4 12 -11 23
-18 25 -15 3 2 13 -5 23 -16 23 -25 47 -27 39 -2 -4 9 3 4 14 -12 l20 -29 -4
42 c-2 23 -7 48 -11 54 -4 6 -6 27 -5 47 1 22 -6 48 -20 70 -12 19 -22 39 -23
43 0 4 -7 12 -15 17 -8 5 -10 10 -5 10 6 0 -3 7 -19 15 -15 8 -54 15 -85 16
-52 1 -54 2 -21 10 19 4 42 6 50 3 10 -4 12 -2 5 5 -15 15 -101 30 -116 20z"/>
<path d="M1808 2493 c7 -3 16 -2 19 1 4 3 -2 6 -13 5 -11 0 -14 -3 -6 -6z"/>
<path d="M1810 2476 c0 -2 9 -6 20 -9 11 -3 18 -1 14 4 -5 9 -34 13 -34 5z"/>
<path d="M1523 2128 c3 -10 -4 -20 -20 -29 -14 -7 -29 -24 -34 -37 -7 -19 -5
-27 13 -42 45 -37 151 -37 163 0 6 18 -8 96 -19 107 -3 3 -29 8 -57 11 -44 4
-51 2 -46 -10z"/>
<path d="M1731 2121 c-8 -5 -16 -32 -19 -65 -4 -53 -3 -56 22 -66 15 -5 45
-10 68 -10 32 0 39 3 34 15 -4 11 2 15 20 15 22 0 24 3 19 23 -4 12 -18 39
-32 60 -22 31 -31 37 -62 37 -20 0 -42 -4 -50 -9z"/>
<path d="M1570 1920 c-19 -11 -49 -27 -67 -35 -37 -17 -47 -30 -36 -47 4 -7 6
-21 5 -30 -2 -11 3 -18 12 -18 8 0 20 -8 26 -17 10 -16 11 -15 7 5 -3 12 -1
22 3 22 19 0 67 -35 90 -66 33 -44 70 -45 112 -4 30 30 48 32 48 4 0 -8 4 -14
9 -14 5 0 11 -8 13 -17 5 -28 59 49 63 89 4 45 -5 80 -19 75 -6 -2 -29 11 -50
30 -47 40 -58 41 -50 8 l6 -25 -63 4 c-35 2 -67 5 -72 5 -4 1 -5 12 -1 26 7
30 8 30 -36 5z m62 -84 c10 -14 -11 -26 -48 -26 -42 0 -49 11 -22 32 23 18 57
15 70 -6z m102 -2 c9 -3 16 -10 16 -15 0 -11 -31 -12 -56 -2 -16 6 -16 7 2 14
10 4 20 8 21 8 1 1 8 -2 17 -5z m-49 -54 c3 -5 -3 -10 -15 -10 -12 0 -18 5
-15 10 3 6 10 10 15 10 5 0 12 -4 15 -10z m145 -19 c0 -6 -4 -13 -10 -16 -5
-3 -10 1 -10 9 0 9 5 16 10 16 6 0 10 -4 10 -9z"/>
<path d="M1690 1643 c0 -8 -14 -13 -32 -13 -18 0 -41 -7 -51 -15 -18 -13 -18
-14 2 -34 12 -12 27 -21 35 -21 7 0 19 -7 26 -15 20 -24 32 -18 28 14 -1 16 3
35 10 43 9 12 9 19 -3 34 -8 11 -15 14 -15 7z"/>
<path d="M1942 1577 c14 -26 3 -148 -14 -159 -10 -5 -8 -8 5 -8 9 0 17 5 17
10 0 6 4 10 8 10 9 0 35 -214 39 -315 2 -70 -14 -147 -44 -205 -25 -51 -81
-81 -172 -92 -76 -9 -83 -8 -141 18 -65 29 -135 96 -168 161 -26 51 -62 195
-55 221 3 13 -8 38 -31 72 -43 62 -44 69 -11 62 15 -2 25 0 25 7 0 7 -4 9 -10
6 -6 -3 -7 1 -4 9 3 9 1 16 -5 16 -15 0 -14 37 1 42 8 3 8 9 1 22 -7 13 -13
15 -17 7 -11 -18 -54 -13 -69 9 -15 21 -48 22 -84 2 -21 -11 -21 -14 -7 -47 8
-19 16 -64 18 -100 4 -61 3 -67 -17 -74 -16 -6 -24 -4 -29 8 -5 12 -7 12 -7 2
-1 -20 -41 17 -41 38 0 12 -11 17 -39 18 -31 2 -45 -3 -66 -25 -65 -64 -90
-137 -105 -302 -6 -63 -15 -154 -20 -201 -6 -48 -13 -127 -16 -176 l-7 -89 68
-43 c55 -35 186 -101 200 -101 2 0 6 15 8 32 4 33 4 33 5 -4 l2 -37 83 -25
c150 -45 195 -51 387 -51 204 0 285 13 440 67 109 39 185 77 289 145 83 55 83
56 78 92 -9 61 -65 314 -75 342 -6 15 -7 43 -2 70 11 53 3 113 -20 154 -18 32
-28 67 -35 125 -8 61 -15 81 -25 75 -6 -3 -10 3 -10 14 0 12 -7 21 -15 21 -7
0 -18 6 -22 13 -12 19 -41 28 -47 14 -3 -9 -7 -9 -14 1 -8 11 -10 11 -15 -1
-3 -8 0 -20 6 -26 8 -8 5 -11 -10 -11 -27 0 -48 29 -69 95 -21 61 -52 108 -69
101 -7 -2 -29 -1 -49 4 -34 7 -35 7 -24 -13z"/>
<path d="M1665 1489 c3 -13 -2 -19 -15 -19 -10 0 -20 -7 -23 -15 -7 -18 9 -30
17 -13 2 7 4 4 3 -7 -2 -11 -6 -25 -10 -31 -16 -26 47 -45 65 -20 9 13 -1 79
-14 87 -6 4 -8 11 -4 17 3 5 -1 12 -8 15 -10 4 -13 0 -11 -14z"/>
<path d="M1397 1483 c-10 -9 -9 -33 1 -33 4 0 8 9 8 20 0 23 0 22 -9 13z"/>
<path d="M1831 1424 c0 -11 3 -14 6 -6 3 7 2 16 -1 19 -3 4 -6 -2 -5 -13z"/>
<path d="M1415 1260 c3 -5 11 -10 16 -10 6 0 7 5 4 10 -3 6 -11 10 -16 10 -6
0 -7 -4 -4 -10z"/>
<path d="M1700 1121 c0 -5 5 -13 10 -16 6 -3 10 -2 10 4 0 5 -4 13 -10 16 -5
3 -10 2 -10 -4z"/>
<path d="M1735 1040 c-24 -27 -24 -79 0 -96 10 -8 34 -14 52 -14 26 0 36 6 44
24 16 35 3 73 -31 91 -38 19 -43 19 -65 -5z"/>
<path d="M17 1514 c-38 -38 58 -414 155 -607 258 -517 784 -869 1351 -903 95
-6 104 -5 111 12 12 30 -16 41 -126 47 -457 26 -913 293 -1180 691 -142 212
-215 408 -265 711 -8 47 -27 68 -46 49z"/>
<path d="M1920 82 c-100 -18 -100 -18 -100 -41 0 -31 14 -33 107 -16 87 16
106 26 96 51 -7 20 -23 21 -103 6z"/>
</g>
</svg>
